

<svg xmlns:dc="http://purl.org/dc/elements/1.1/" xmlns:cc="http://creativecommons.org/ns#" xmlns:rdf="http://www.w3.org/1999/02/22-rdf-syntax-ns#" xmlns:svg="http://www.w3.org/2000/svg" xmlns="http://www.w3.org/2000/svg" viewBox="0 0 848.79999 848.81335" height="848.81335" width="848.79999" xml:space="preserve" id="svg2" version="1.1"><metadata id="metadata8"><rdf:RDF><cc:Work rdf:about=""><dc:format>image/svg+xml</dc:format><dc:type rdf:resource="http://purl.org/dc/dcmitype/StillImage"/></cc:Work></rdf:RDF></metadata><defs id="defs6"/>


<path xmlns="http://www.w3.org/2000/svg" id="path16" style="fill:#000000;fill-opacity:1;fill-rule:nonzero;stroke:none;" d="m 2333.23,4933.98 -152.52,143.05 c -10.08,9.44 -25.9,8.94 -35.34,-1.13 -9.45,-10.07 -8.94,-25.9 1.13,-35.34 l 152.52,-143.05 c 10.07,-9.44 25.89,-8.94 35.34,1.14 9.44,10.07 8.94,25.89 -1.13,35.33"/>
<path xmlns="http://www.w3.org/2000/svg" id="path18" style="fill:#000000;fill-opacity:1;fill-rule:nonzero;stroke:none" d="m 2186.55,4893.88 143.07,152.52 c 9.45,10.07 8.94,25.89 -1.13,35.33 -10.07,9.45 -25.89,8.95 -35.34,-1.13 l -143.06,-152.51 c -9.45,-10.07 -8.94,-25.9 1.13,-35.34 10.07,-9.45 25.89,-8.94 35.33,1.13"/>
</svg>